<svg width="360" height="58" viewBox="0 0 360 58" fill="none" xmlns="http://www.w3.org/2000/svg">
<rect x="0.5" y="18.5" width="359" height="39" rx="3.5" stroke="#4D5AE5"/>
<path d="M7.55273 2.46875V11H6.41602L2.12109 4.41992V11H0.990234V2.46875H2.12109L6.43359 9.06641V2.46875H7.55273ZM13.6109 9.91602V6.65234C13.6109 6.40234 13.5601 6.18555 13.4585 6.00195C13.3609 5.81445 13.2124 5.66992 13.0132 5.56836C12.814 5.4668 12.5679 5.41602 12.2749 5.41602C12.0015 5.41602 11.7612 5.46289 11.5542 5.55664C11.3511 5.65039 11.1909 5.77344 11.0737 5.92578C10.9605 6.07812 10.9038 6.24219 10.9038 6.41797H9.81984C9.81984 6.19141 9.87844 5.9668 9.99562 5.74414C10.1128 5.52148 10.2808 5.32031 10.4995 5.14062C10.7222 4.95703 10.9878 4.8125 11.2964 4.70703C11.6089 4.59766 11.9566 4.54297 12.3394 4.54297C12.8003 4.54297 13.2066 4.62109 13.5581 4.77734C13.9136 4.93359 14.1909 5.16992 14.3902 5.48633C14.5933 5.79883 14.6948 6.19141 14.6948 6.66406V9.61719C14.6948 9.82812 14.7124 10.0527 14.7476 10.291C14.7866 10.5293 14.8433 10.7344 14.9175 10.9062V11H13.7866C13.732 10.875 13.689 10.709 13.6577 10.502C13.6265 10.291 13.6109 10.0957 13.6109 9.91602ZM13.7984 7.15625L13.8101 7.91797H12.7144C12.4058 7.91797 12.1304 7.94336 11.8882 7.99414C11.646 8.04102 11.4429 8.11328 11.2788 8.21094C11.1148 8.30859 10.9898 8.43164 10.9038 8.58008C10.8179 8.72461 10.7749 8.89453 10.7749 9.08984C10.7749 9.28906 10.8198 9.4707 10.9097 9.63477C10.9995 9.79883 11.1343 9.92969 11.314 10.0273C11.4976 10.1211 11.7222 10.168 11.9878 10.168C12.3198 10.168 12.6128 10.0977 12.8667 9.95703C13.1206 9.81641 13.3218 9.64453 13.4702 9.44141C13.6226 9.23828 13.7046 9.04102 13.7163 8.84961L14.1792 9.37109C14.1519 9.53516 14.0777 9.7168 13.9566 9.91602C13.8355 10.1152 13.6734 10.3066 13.4702 10.4902C13.271 10.6699 13.0327 10.8203 12.7554 10.9414C12.482 11.0586 12.1734 11.1172 11.8296 11.1172C11.3999 11.1172 11.023 11.0332 10.6987 10.8652C10.3784 10.6973 10.1284 10.4727 9.94875 10.1914C9.77297 9.90625 9.68508 9.58789 9.68508 9.23633C9.68508 8.89648 9.75148 8.59766 9.8843 8.33984C10.0171 8.07812 10.2085 7.86133 10.4585 7.68945C10.7085 7.51367 11.0093 7.38086 11.3609 7.29102C11.7124 7.20117 12.105 7.15625 12.5386 7.15625H13.7984ZM17.958 5.91992V11H16.8682V4.66016H17.8995L17.958 5.91992ZM17.7354 7.58984L17.2315 7.57227C17.2354 7.13867 17.292 6.73828 17.4014 6.37109C17.5108 6 17.6729 5.67773 17.8877 5.4043C18.1026 5.13086 18.3702 4.91992 18.6905 4.77148C19.0108 4.61914 19.3819 4.54297 19.8037 4.54297C20.1006 4.54297 20.3741 4.58594 20.6241 4.67188C20.8741 4.75391 21.0909 4.88477 21.2745 5.06445C21.458 5.24414 21.6006 5.47461 21.7022 5.75586C21.8037 6.03711 21.8545 6.37695 21.8545 6.77539V11H20.7705V6.82812C20.7705 6.49609 20.7139 6.23047 20.6006 6.03125C20.4912 5.83203 20.335 5.6875 20.1319 5.59766C19.9287 5.50391 19.6905 5.45703 19.417 5.45703C19.0967 5.45703 18.8291 5.51367 18.6143 5.62695C18.3995 5.74023 18.2276 5.89648 18.0987 6.0957C17.9698 6.29492 17.876 6.52344 17.8174 6.78125C17.7627 7.03516 17.7354 7.30469 17.7354 7.58984ZM21.8428 6.99219L21.1162 7.21484C21.1202 6.86719 21.1768 6.5332 21.2862 6.21289C21.3995 5.89258 21.5616 5.60742 21.7725 5.35742C21.9873 5.10742 22.251 4.91016 22.5635 4.76562C22.876 4.61719 23.2334 4.54297 23.6358 4.54297C23.9756 4.54297 24.2764 4.58789 24.5381 4.67773C24.8037 4.76758 25.0264 4.90625 25.2061 5.09375C25.3897 5.27734 25.5284 5.51367 25.6221 5.80273C25.7159 6.0918 25.7627 6.43555 25.7627 6.83398V11H24.6729V6.82227C24.6729 6.4668 24.6162 6.19141 24.503 5.99609C24.3936 5.79688 24.2373 5.6582 24.0342 5.58008C23.835 5.49805 23.5967 5.45703 23.3194 5.45703C23.0811 5.45703 22.8702 5.49805 22.6866 5.58008C22.503 5.66211 22.3487 5.77539 22.2237 5.91992C22.0987 6.06055 22.003 6.22266 21.9366 6.40625C21.8741 6.58984 21.8428 6.78516 21.8428 6.99219ZM30.5142 11.1172C30.0728 11.1172 29.6724 11.043 29.313 10.8945C28.9576 10.7422 28.6509 10.5293 28.3931 10.2559C28.1392 9.98242 27.9439 9.6582 27.8072 9.2832C27.6705 8.9082 27.6021 8.49805 27.6021 8.05273V7.80664C27.6021 7.29102 27.6783 6.83203 27.8306 6.42969C27.983 6.02344 28.19 5.67969 28.4517 5.39844C28.7134 5.11719 29.0103 4.9043 29.3423 4.75977C29.6744 4.61523 30.0181 4.54297 30.3736 4.54297C30.8267 4.54297 31.2173 4.62109 31.5455 4.77734C31.8775 4.93359 32.149 5.15234 32.3599 5.43359C32.5709 5.71094 32.7271 6.03906 32.8287 6.41797C32.9302 6.79297 32.981 7.20312 32.981 7.64844V8.13477H28.2466V7.25H31.897V7.16797C31.8814 6.88672 31.8228 6.61328 31.7213 6.34766C31.6236 6.08203 31.4673 5.86328 31.2525 5.69141C31.0377 5.51953 30.7447 5.43359 30.3736 5.43359C30.1275 5.43359 29.9009 5.48633 29.6939 5.5918C29.4869 5.69336 29.3091 5.8457 29.1607 6.04883C29.0123 6.25195 28.897 6.5 28.815 6.79297C28.733 7.08594 28.692 7.42383 28.692 7.80664V8.05273C28.692 8.35352 28.733 8.63672 28.815 8.90234C28.9009 9.16406 29.024 9.39453 29.1841 9.59375C29.3482 9.79297 29.5455 9.94922 29.7759 10.0625C30.0103 10.1758 30.2759 10.2324 30.5728 10.2324C30.9556 10.2324 31.2798 10.1543 31.5455 9.99805C31.8111 9.8418 32.0435 9.63281 32.2427 9.37109L32.899 9.89258C32.7623 10.0996 32.5884 10.2969 32.3775 10.4844C32.1666 10.6719 31.9068 10.8242 31.5982 10.9414C31.2935 11.0586 30.9322 11.1172 30.5142 11.1172Z" fill="#8E8F99"/>
<g clip-path="url(#clip0_297083_8301)">
<path d="M25 38C26.6575 38 28 36.6575 28 35C28 33.3425 26.6575 32 25 32C23.3425 32 22 33.3425 22 35C22 36.6575 23.3425 38 25 38ZM25 39.5C22.9975 39.5 19 40.505 19 42.5V43.25C19 43.6625 19.3375 44 19.75 44H30.25C30.6625 44 31 43.6625 31 43.25V42.5C31 40.505 27.0025 39.5 25 39.5Z" fill="#4D5AE5"/>
</g>
<line x1="38.625" y1="29.625" x2="38.625" y2="46.375" stroke="#2E2F42" stroke-width="1.25" stroke-linecap="round"/>
<defs>
<clipPath id="clip0_297083_8301">
<rect width="18" height="18" fill="white" transform="translate(16 29)"/>
</clipPath>
</defs>
</svg>
